<svg width="1200" height="193" viewBox="0 0 1200 193" fill="none" xmlns="http://www.w3.org/2000/svg">
<path d="M1200 105.901C1200 71.4649 1179.34 50.5947 1148.9 50.5947C1125.26 50.5948 1107.32 63.6334 1098.89 87.3711V53.4619H1069.03V189.911H1098.92V121.821C1098.92 91.5644 1113.86 71.7356 1138.32 71.7354C1158.43 71.7354 1170.11 85.3018 1170.11 108.255V189.897H1200V193H408.194C440.771 192.126 466.569 173.27 472.402 143.477H441.147C438.16 161.209 424.026 172.949 405.552 172.949C381.906 172.949 365.053 154.419 365.053 127.557H474.572C477.841 87.1144 453.378 50.6357 405.819 50.6357C363.151 50.6359 334.348 79.2965 334.348 121.294V121.308C334.348 162.737 362.037 191.878 403.337 193H302.861C311.988 192.806 321.083 191.24 329.712 188.071V167.201C323.188 170.069 316.113 171.638 308.236 171.638C293.835 171.638 286.493 164.604 286.493 150.253V73.3047H326.992V53.4756H286.493V18.2549H256.873V53.4619H194.646V42.3438C194.646 29.305 202.255 21.4736 216.389 21.4736C222.913 21.4737 230.522 23.2996 236.497 26.167V4.98535C227.253 1.6039 217.473 0.035165 208.229 0.0351562C181.597 0.0351562 164.743 13.8584 164.743 41.248V53.4619H137.814V73.291H164.757V189.897H194.646V73.291H256.605V149.198C256.606 178.8 272.994 192.424 299.158 193H46.0703C75.349 192.567 91.1144 172.077 97.5693 147.562V189.884H127.457V103.806C127.457 69.8964 104.897 50.6221 67.667 50.6221C27.7178 50.6221 4.56578 74.2786 1.63477 100.167H30.7051C32.2129 84.5448 44.2893 69.4094 67.1172 69.4092C85.591 69.4092 97.5545 79.2963 97.5547 96.7715V100.681L61.96 107.457C24.9981 113.463 0 127.543 0 153.892L0.0136719 153.878C0.0136975 176.084 17.8435 192.658 44.2842 193H0V0H1200V105.901ZM680.251 50.5947C656.606 50.5947 638.667 63.6334 630.24 87.3711V53.4619H600.381V189.911H630.269V121.821C630.269 91.5643 645.205 71.7355 669.668 71.7354C689.776 71.7354 701.458 85.3018 701.458 108.255V189.897H731.347V105.901C731.347 71.4649 710.688 50.5948 680.251 50.5947ZM575.157 52.4209C547.989 52.4209 531.135 69.112 524.61 94.6758V53.4619H494.723V189.884H524.61V120.496C524.61 91.5373 544.452 79.2832 567.548 79.2832C572.705 79.2833 579.23 80.3383 584.119 81.6367V53.2051C581.132 52.4206 578.144 52.4209 575.157 52.4209ZM827.93 53.4619C782.598 53.4619 748.595 78.4984 748.595 121.023C748.595 163.549 781.893 189.884 827.93 189.884H972.085C1018.12 189.884 1051.42 164.32 1051.42 121.023C1051.42 77.7274 1017.43 53.4619 972.085 53.4619H827.93ZM97.5693 116.601C97.5693 140.85 83.7057 170.846 55.1758 170.852C38.5945 170.849 30.7197 160.937 30.7197 150.767C30.72 137.471 44.0361 128.855 67.1318 123.904L97.5693 116.601ZM966.448 72.7773C991.728 72.7773 1017.61 89.4678 1017.61 121.294C1017.61 153.12 991.714 170.596 966.448 170.596H833.565C808.285 170.596 782.399 153.634 782.399 121.294C782.4 88.954 808.3 72.7775 833.565 72.7773H966.448ZM405.284 69.9229C426.745 69.9229 442.246 85.5459 443.599 108.242H365.335C367.505 86.0599 383.823 69.9229 405.284 69.9229Z" fill="#F6F6F6"/>
</svg>
